<svg width="48" height="25" viewBox="0 0 48 25" fill="none" xmlns="http://www.w3.org/2000/svg">
<path fill-rule="evenodd" clip-rule="evenodd" d="M31.8254 6.65415L27.2566 2.08531C24.4762 -0.695034 19.9684 -0.695032 17.188 2.08531C16.2711 3.00227 15.6565 4.10712 15.3444 5.27594L12.1538 2.08531C9.37343 -0.695032 4.8656 -0.69503 2.08525 2.08532C-0.695091 4.86566 -0.695088 9.37349 2.08526 12.1538L12.1538 22.2224C14.9341 25.0027 19.442 25.0027 22.2223 22.2224C23.1393 21.3054 23.7538 20.2005 24.0659 19.0317L27.2566 22.2224C30.0369 25.0027 34.5447 25.0027 37.3251 22.2224L45.6106 13.9368C48.7965 10.751 48.7965 5.58576 45.6106 2.39995C42.4248 -0.785862 37.2596 -0.785861 34.0738 2.39995C32.8678 3.60595 32.1183 5.0956 31.8254 6.65415ZM29.7737 19.7052C31.1639 21.0954 33.4178 21.0954 34.808 19.7052C36.1975 18.3156 36.1981 16.0631 34.8097 14.6727L24.7394 4.60244C23.3493 3.21227 21.0953 3.21227 19.7052 4.60244C18.3157 5.99188 18.315 8.24414 19.703 9.63449L29.7737 19.7052ZM36.5909 11.4197L39.8422 14.671L43.0935 11.4197C44.8892 9.62403 44.8891 6.71272 43.0935 4.91708C41.2979 3.12144 38.3866 3.12144 36.5909 4.91708C34.7953 6.71272 34.7953 9.62403 36.5909 11.4197ZM19.7081 14.6739C21.0953 16.0643 21.0944 18.316 19.7052 19.7052C18.315 21.0954 16.0611 21.0954 14.6709 19.7052L4.60239 9.63671C3.21221 8.24653 3.21221 5.99262 4.60239 4.60245C5.99256 3.21227 8.24647 3.21227 9.63665 4.60245L19.7081 14.6739Z" fill="#0044FF"/>
</svg>
